HIERARCHY
ROOT Pelvis
{
	OFFSET 0.000000 0.000000 0.000000
	CHANNELS 6 Xposition Yposition Zposition Xrotation Yrotation Zrotation
	JOINT LeftUpLeg_virtual
	{
		OFFSET 0.000000 0.000000 0.000000
		CHANNELS 3 Xrotation Yrotation Zrotation
		JOINT LeftUpLeg
		{
			OFFSET 18.735201 -5.666702 -4.541200
			CHANNELS 3 Xrotation Yrotation Zrotation
			JOINT LeftLeg
			{
				OFFSET -0.021200 -31.938179 0.493100
				CHANNELS 3 Xrotation Yrotation Zrotation
				JOINT LeftFoot
				{
					OFFSET 0.021200 -31.938179 -4.336299
					CHANNELS 3 Xrotation Yrotation Zrotation
					JOINT LeftToeBase
					{
						OFFSET 0.943001 -26.722000 15.023500
						CHANNELS 3 Xrotation Yrotation Zrotation
						End Site
						{
							OFFSET 0 0 0
						}
					}
				}
			}
		}
	}
	JOINT RightUpLeg_virtual
	{
		OFFSET 0.000000 0.000000 0.000000
		CHANNELS 3 Xrotation Yrotation Zrotation
		JOINT RightUpLeg
		{
			OFFSET -18.735201 -5.666702 -4.541200
			CHANNELS 3 Xrotation Yrotation Zrotation
			JOINT RightLeg
			{
				OFFSET 0.018946 -31.938133 0.493100
				CHANNELS 3 Xrotation Yrotation Zrotation
				JOINT RightFoot
				{
					OFFSET -0.018946 -31.938126 -4.336299
					CHANNELS 3 Xrotation Yrotation Zrotation
					JOINT RightToeBase
					{
						OFFSET -0.943001 -26.722004 15.023500
						CHANNELS 3 Xrotation Yrotation Zrotation
						End Site
						{
							OFFSET 0 0 0
						}
					}
				}
			}
		}
	}
	JOINT Hips_virtual
	{
		OFFSET 0.000000 0.000000 0.000000
		CHANNELS 3 Xrotation Yrotation Zrotation
		JOINT Hips
		{
			OFFSET -0.000000 -0.000000 -0.000000
			CHANNELS 3 Xrotation Yrotation Zrotation
			JOINT Spine
			{
				OFFSET 0.000000 10.199997 -0.299500
				CHANNELS 3 Xrotation Yrotation Zrotation
				JOINT Spine1
				{
					OFFSET 0.000000 11.900002 -1.516600
					CHANNELS 3 Xrotation Yrotation Zrotation
					JOINT Spine2
					{
						OFFSET 0.000000 13.600006 -2.842500
						CHANNELS 3 Xrotation Yrotation Zrotation
						JOINT Neck_virtual
						{
							OFFSET 0.000000 0.000000 0.000000
							CHANNELS 3 Xrotation Yrotation Zrotation
							JOINT Neck
							{
								OFFSET 0.000000 9.624100 -2.890100
								CHANNELS 3 Xrotation Yrotation Zrotation
								JOINT Head
								{
									OFFSET 0.000000 14.068802 -1.351900
									CHANNELS 3 Xrotation Yrotation Zrotation
									End Site
									{
										OFFSET 0 0 0
									}
								}
							}
						}
						JOINT LeftShoulder_virtual
						{
							OFFSET 0.000000 0.000000 0.000000
							CHANNELS 3 Xrotation Yrotation Zrotation
							JOINT LeftShoulder
							{
								OFFSET 15.263000 10.923401 -0.547700
								CHANNELS 3 Xrotation Yrotation Zrotation
								JOINT LeftArm
								{
									OFFSET 25.438599 -2.830597 -13.032500
									CHANNELS 3 Xrotation Yrotation Zrotation
									JOINT LeftForeArm
									{
										OFFSET 29.960503 0.000000 0.000000
										CHANNELS 3 Xrotation Yrotation Zrotation
										JOINT LeftHand
										{
											OFFSET 27.849251 0.000000 0.000000
											CHANNELS 3 Xrotation Yrotation Zrotation
											End Site
											{
												OFFSET 0 0 0
											}
										}
									}
								}
							}
						}
						JOINT RightShoulder_virtual
						{
							OFFSET 0.000000 0.000000 0.000000
							CHANNELS 3 Xrotation Yrotation Zrotation
							JOINT RightShoulder
							{
								OFFSET -15.263000 10.923401 -0.547700
								CHANNELS 3 Xrotation Yrotation Zrotation
								JOINT RightArm
								{
									OFFSET -25.438599 -2.830597 -13.032500
									CHANNELS 3 Xrotation Yrotation Zrotation
									JOINT RightForeArm
									{
										OFFSET -29.960503 0.000000 0.000000
										CHANNELS 3 Xrotation Yrotation Zrotation
										JOINT RightHand
										{
											OFFSET -27.849251 0.000000 0.000000
											CHANNELS 3 Xrotation Yrotation Zrotation
											End Site
											{
												OFFSET 0 0 0
											}
										}
									}
								}
							}
						}
					}
				}
			}
		}
	}
}
MOTION
Frames: 6
Frame Time: 0.03333333
-8.352125 130.076874 -10.970970 0.000000 0.000000 0.000000 -22.250834 -30.595931 0.143690 -76.389259 -2.944130 25.192912 121.778188 -16.640610 0.883372 40.669357 -21.037440 -25.436714 0.000000 0.000000 0.000000 -18.157819 3.175386 -29.448463 -57.496778 11.028494 -39.845227 116.375386 23.506933 -0.716207 21.848687 20.142059 41.804610 0.000000 0.000000 0.000000 4.842242 -3.795489 0.278803 10.492543 0.429011 -6.953842 24.846592 5.453781 2.186201 12.504499 2.559520 2.261300 0.000000 0.000000 0.000000 6.088529 1.143677 0.899754 2.521146 0.897811 0.750327 0.000000 0.000000 0.000000 5.948822 2.091262 1.533438 0.040808 -2.653601 7.957603 -25.602322 18.235750 -3.911640 0.526406 3.995904 4.047115 0.000000 0.000000 0.000000 6.169130 -1.442597 -2.647595 3.960691 2.862256 -19.356532 -21.421095 -1.256822 -7.284684 -3.165519 27.381624 -8.164894 0.000000 0.000000 0.000000 
-8.145473 129.430283 -10.255970 0.000000 0.000000 0.000000 -22.973956 -29.428676 0.769321 -76.874769 -3.161538 25.457987 121.360003 -15.484619 1.046014 41.632995 -20.195923 -23.628577 0.000000 0.000000 0.000000 -17.794591 1.817028 -28.771209 -56.836784 10.375988 -39.504264 115.140433 23.439824 -0.498788 21.197936 19.795644 41.684197 0.000000 0.000000 0.000000 4.930050 -3.452790 0.255097 9.951014 0.516524 -6.947817 24.610008 5.593339 2.057146 12.356533 2.652332 2.204373 0.000000 0.000000 0.000000 6.104484 1.221251 0.959152 2.506590 0.884398 0.773377 0.000000 0.000000 0.000000 5.897050 2.152911 1.582042 -0.058967 -2.702390 7.988638 -25.492896 19.342823 -2.552347 0.545086 5.230459 4.504303 0.000000 0.000000 0.000000 6.240512 -1.339410 -2.668585 3.970574 2.983470 -19.348799 -20.727681 -2.022706 -8.103202 -2.894204 25.850420 -8.612413 0.000000 0.000000 0.000000 
-7.972592 128.414322 -9.583158 0.000000 0.000000 0.000000 -23.345520 -27.955064 1.525559 -77.000971 -3.285905 25.697593 120.428912 -14.394192 1.060905 42.195485 -19.232800 -22.045364 0.000000 0.000000 0.000000 -16.993482 0.856128 -27.561243 -55.826490 9.573769 -38.862141 113.465329 23.293638 -0.223713 20.378018 19.330846 41.442449 0.000000 0.000000 0.000000 5.012200 -3.161079 0.267370 9.377493 0.671405 -6.793526 24.275589 5.675986 1.878004 12.138888 2.721257 2.118997 0.000000 0.000000 0.000000 6.109129 1.291908 1.001669 2.477148 0.873109 0.783110 0.000000 0.000000 0.000000 5.803274 2.209735 1.621781 -0.177291 -2.658468 7.912448 -25.304017 20.378602 -1.470573 0.553002 6.194407 4.908979 0.000000 0.000000 0.000000 6.285962 -1.229183 -2.662462 3.966322 3.132539 -19.147520 -19.916094 -2.911324 -8.587002 -2.605980 24.412872 -8.973909 0.000000 0.000000 0.000000 
-7.842190 127.028816 -8.966914 0.000000 0.000000 0.000000 -23.421163 -26.300644 2.296603 -76.802199 -3.309600 25.874275 118.977005 -13.372000 0.935864 42.343423 -18.170130 -20.701091 0.000000 0.000000 0.000000 -15.818711 0.395439 -25.916183 -54.501006 8.680067 -37.937364 111.365558 23.042775 0.092336 19.409755 18.749436 41.043239 0.000000 0.000000 0.000000 5.079284 -2.919237 0.308631 8.781345 0.890178 -6.528590 23.858093 5.703531 1.662031 11.859987 2.766759 2.012649 0.000000 0.000000 0.000000 6.103287 1.354400 1.028704 2.433657 0.864554 0.780989 0.000000 0.000000 0.000000 5.670331 2.262334 1.653570 -0.310635 -2.514250 7.740527 -25.030844 21.361941 -0.718515 0.549213 6.906123 5.242155 0.000000 0.000000 0.000000 6.301417 -1.118207 -2.631862 3.941403 3.291726 -18.764451 -19.028448 -3.928190 -8.725382 -2.315730 23.077058 -9.243048 0.000000 0.000000 0.000000 
-7.754880 125.292969 -8.407692 0.000000 0.000000 0.000000 -23.243272 -24.568255 2.986661 -76.308581 -3.223531 25.958477 117.000403 -12.402701 0.682479 42.079559 -17.016018 -19.580279 0.000000 0.000000 0.000000 -14.355934 0.466815 -23.952521 -52.891820 7.744268 -36.756035 108.828594 22.656250 0.437936 18.302248 18.044173 40.447994 0.000000 0.000000 0.000000 5.120944 -2.720525 0.371361 8.164346 1.176825 -6.191969 23.376891 5.677493 1.421275 11.531180 2.789079 1.891998 0.000000 0.000000 0.000000 6.088126 1.406787 1.039985 2.377216 0.858668 0.767809 0.000000 0.000000 0.000000 5.503181 2.311608 1.675986 -0.454395 -2.264444 7.477715 -24.664138 22.309770 -0.354744 0.534121 7.383753 5.482992 0.000000 0.000000 0.000000 6.285072 -1.012146 -2.579444 3.890580 3.444152 -18.213591 -18.097513 -5.085994 -8.508075 -2.036519 21.833827 -9.412755 0.000000 0.000000 0.000000 
-7.704178 123.238770 -7.896931 0.000000 0.000000 0.000000 -22.829486 -22.826403 3.522753 -75.537097 -3.012580 25.926438 114.506339 -11.460648 0.316037 41.417728 -15.769445 -18.650381 0.000000 0.000000 0.000000 -12.698336 1.025881 -21.792917 -51.026977 6.802786 -35.352868 105.822983 22.104061 0.804650 17.048792 17.202096 39.624024 0.000000 0.000000 0.000000 5.127888 -2.553961 0.448821 7.523405 1.540817 -5.816235 22.854619 5.598330 1.164806 11.166068 2.787906 1.761877 0.000000 0.000000 0.000000 6.064731 1.446431 1.033530 2.308957 0.854657 0.743639 0.000000 0.000000 0.000000 5.308595 2.358719 1.685258 -0.603251 -1.906247 7.121545 -24.188391 23.233119 -0.439680 0.509781 7.642108 5.610722 0.000000 0.000000 0.000000 6.237612 -0.916319 -2.507975 3.810179 3.572901 -17.511724 -17.145322 -6.400929 -7.922616 -1.779478 20.661891 -9.473983 0.000000 0.000000 0.000000 
